<svg xmlns="http://www.w3.org/2000/svg" viewBox="0 0 1700 2400" width="1700" height="2400">
<defs>
<linearGradient id="bg" x1="0" y1="0" x2="0" y2="1"><stop offset="0" stop-color="#0C1A34"/>
<stop offset="0.72" stop-color="#1B3158"/><stop offset="1" stop-color="#172B4E"/></linearGradient>
<pattern id="dots" width="34" height="34" patternUnits="userSpaceOnUse"><circle cx="17" cy="17" r="1.7" fill="#FFFFFF" fill-opacity="0.07"/></pattern>
<radialGradient id="halo"><stop offset="0" stop-color="#C9A857" stop-opacity="0.30"/><stop offset="0.55" stop-color="#C9A857" stop-opacity="0.09"/>
<stop offset="1" stop-color="#C9A857" stop-opacity="0"/></radialGradient></defs>
<rect width="1700" height="2400" fill="url(#bg)"/><rect width="1700" height="2400" fill="url(#dots)"/>
<circle cx="1054" cy="1440" r="640" fill="url(#halo)"/>
<circle cx="1054" cy="1440" r="505" fill="none" stroke="#C9A857" stroke-width="3" stroke-opacity="0.42"/>
<svg x="554.0" y="940.0" width="1000" height="1000" viewBox="0 0 1000 1000" preserveAspectRatio="xMidYMid meet">
<circle cx="500" cy="470" r="455" fill="none" stroke="#C9A857" stroke-width="3" stroke-opacity="0.45"/>
<!-- D：差异洪流，几道由左向右、渐渐成形的波 -->
<g fill="none" stroke="#58BDCA" stroke-linecap="round">
<path d="M90,380 C200,300 280,460 390,380 S580,300 690,380 S850,440 910,380" stroke-width="5" stroke-opacity="0.85"/>
<path d="M90,440 C200,360 280,520 390,440 S580,360 690,440 S850,500 910,440" stroke-width="3" stroke-opacity="0.55"/>
<path d="M90,500 C200,420 280,580 390,500 S580,420 690,500 S850,560 910,500" stroke-width="3" stroke-opacity="0.35"/>
</g>
<!-- S：波压出来的形状，一个正在成形的圆 -->
<circle cx="500" cy="470" r="150" fill="none" stroke="#EFE8D6" stroke-width="9"/>
<circle cx="500" cy="470" r="108" fill="none" stroke="#EFE8D6" stroke-width="3" stroke-opacity="0.45"/>
<!-- E：纠缠网络，几个节点互相牵着 -->
<g stroke="#C9A857" stroke-width="3" stroke-opacity="0.75" fill="none">
<line x1="500" y1="320" x2="630" y2="545"/><line x1="630" y1="545" x2="370" y2="545"/><line x1="370" y1="545" x2="500" y2="320"/>
<line x1="500" y1="320" x2="500" y2="720"/><line x1="630" y1="545" x2="500" y2="720"/><line x1="370" y1="545" x2="500" y2="720"/>
</g>
<g fill="#0C1A34" stroke="#C9A857" stroke-width="7">
<circle cx="500" cy="320" r="19"/><circle cx="630" cy="545" r="19"/><circle cx="370" cy="545" r="19"/>
</g>
<circle cx="500" cy="720" r="19" fill="#C9A857"/>
<g stroke-linecap="round" fill="none">
<line x1="300" y1="860" x2="700" y2="860" stroke="#C9A857" stroke-width="9"/>
<line x1="350" y1="900" x2="650" y2="900" stroke="#EFE8D6" stroke-width="6" stroke-opacity="0.85"/>
<line x1="400" y1="936" x2="600" y2="936" stroke="#58BDCA" stroke-width="5" stroke-opacity="0.85"/>
</g>
</svg>
<text x="162" y="400" font-family="'Noto Serif CJK SC','Source Han Serif SC','Songti SC',serif" font-size="62" font-weight="bold" fill="#EFE8D6" letter-spacing="4">德麦国际专著</text>
<text x="150" y="570" font-family="'Noto Serif CJK SC','Source Han Serif SC','Songti SC',serif" font-size="130" font-weight="bold" fill="#EFE8D6" letter-spacing="8">SDE发生学</text>
<text x="162" y="770" font-family="'Noto Serif CJK SC','Source Han Serif SC','Songti SC',serif" font-size="44" fill="#C9A857">结构、差异与特征纠缠的本体论革命</text>
<line x1="162" y1="1990" x2="560" y2="1990" stroke="#C9A857" stroke-width="3" stroke-opacity="0.8"/>
<text x="162" y="2075" font-family="'Noto Serif CJK SC','Source Han Serif SC','Songti SC',serif" font-size="50" fill="#EFE8D6" letter-spacing="6">王德生　　著</text>
<text x="162" y="2215" font-family="'Noto Serif CJK SC','Source Han Serif SC','Songti SC',serif" font-size="40" font-weight="bold" fill="#EFE8D6" letter-spacing="6">德麦国际出版社</text>
<text x="162" y="2268" font-family="'Noto Sans CJK SC','Source Han Sans SC','PingFang SC',sans-serif" font-size="26" fill="#9FB0C8" letter-spacing="2">Demai International Press</text>

</svg>